<?xml version="1.0" encoding="utf-8"?>
<!-- Svg Vector Icons : http://www.onlinewebfonts.com/icon -->
<!DOCTYPE svg PUBLIC "-//W3C//DTD SVG 1.1//EN" "http://www.w3.org/Graphics/SVG/1.1/DTD/svg11.dtd">
<svg version="1.1" xmlns="http://www.w3.org/2000/svg" xmlns:xlink="http://www.w3.org/1999/xlink" x="0px" y="0px" viewBox="0 0 1000 1000" enable-background="new 0 0 1000 1000" xml:space="preserve">
<metadata> Svg Vector Icons : http://www.onlinewebfonts.com/icon </metadata>
<g><g transform="translate(0.000000,511.000000) scale(0.100000,-0.100000)"><path d="M4908,4813.3c-87.9-50.2-4671.2-3623.2-4734-3690.1c-56.5-56.5-69-87.9-69-161.1c0-73.2,12.6-102.5,64.9-152.7l62.8-60.7H5000h4767.4l62.8,60.7c52.3,50.2,64.8,79.5,64.8,152.7c0,73.2-12.5,104.6-66.9,161.1c-96.2,98.3-4694.2,3671.3-4759.1,3696.4C5002.1,4844.7,4958.2,4842.6,4908,4813.3z M7001.9,2775.8c1102.4-857.7,2008.2-1568.9,2010.3-1579.4c4.2-10.5-1531.3-18.8-4012.3-18.8c-2493.5,0-4016.4,8.4-4012.2,18.8c4.2,14.6,3980.9,3129.5,4006,3137.8C4995.8,4336.3,5899.5,3633.5,7001.9,2775.8z"/><path d="M4922.6,3834.3c-52.3-20.9-2547.9-1989.4-2614.9-2064.7c-71.1-75.3-64.8-196.6,12.6-282.4l60.7-69H5000h2619.1l60.7,69c77.4,85.8,83.7,207.1,14.6,282.4C7617,1853.3,5125.5,3813.4,5069,3836.4C5008.4,3859.4,4983.3,3859.4,4922.6,3834.3z M5951.8,2595.9l933-738.4l-943.4-6.3c-516.7-2.1-1366-2.1-1882.7,0l-943.4,6.3l926.7,736.3c510.4,403.7,939.3,736.3,951.8,736.3C5008.4,3332.2,5439.3,2999.6,5951.8,2595.9z"/><path d="M759.7,276c-154.8-46-205-240.6-92-355.6c60.7-60.7,90-66.9,238.5-60.7l77.4,4.2v-1234.2v-1234.2l-127.6-8.4c-113-8.4-138.1-18.8-188.3-75.3c-64.9-73.2-77.4-154.8-35.6-244.8c52.3-115,54.4-115,1142.2-115c972.7,0,1004.1,2.1,1056.4,41.8c79.5,62.8,108.8,167.4,69,257.3c-37.7,92.1-125.5,140.2-251,140.2h-92l-10.5,121.3c-6.3,64.8-10.5,619.2-8.4,1227.9l4.2,1108.7l129.7,6.3c104.6,4.2,138.1,16.7,179.9,58.6c71.1,71.1,87.9,156.9,48.1,242.7c-64.8,136-29.3,131.8-1100.3,136C1240.9,294.8,797.4,288.5,759.7,276z M1941.6-152.9l150.6-12.5v-1221.7v-1221.7h-334.7h-334.7v1219.6c0,671.5,4.2,1225.8,8.4,1230C1445.9-144.5,1776.4-140.3,1941.6-152.9z"/><path d="M3981.2,276c-89.9-27.2-152.7-110.9-152.7-207.1c0-163.2,142.2-244.8,376.5-217.6l125.5,14.6v-1238.4v-1236.3h-167.4c-255.2,0-334.7-54.4-334.7-230.1c0-69,12.6-100.4,60.7-148.5l60.7-60.7h1008.3c855.6,0,1014.6,4.2,1066.9,31.4c73.2,37.6,104.6,90,104.6,175.7c0,159-100.4,232.2-322.2,232.2h-138.1v1236.3c0,1163.1,2.1,1236.3,35.6,1223.8c20.9-8.4,98.3-8.4,171.5,0c110.9,10.5,148.5,25.1,194.6,73.2c115,115.1,58.6,307.5-104.6,353.5C5868.1,305.3,4075.4,303.2,3981.2,276z M5225.9-1378.7l4.2-1230H5000h-230.1v1219.6c0,671.5,4.2,1225.8,8.4,1230c4.2,4.2,106.7,8.4,225.9,8.4h215.5L5225.9-1378.7z"/><path d="M7372.2,269.7c-190.4-83.7-173.6-353.5,25.1-407.9c39.7-10.5,123.4-14.6,186.2-8.3l115,12.5v-1236.3v-1234.2l-169.4-8.4c-161.1-6.3-171.5-10.5-230.1-75.3c-64.9-73.2-77.4-152.7-35.6-244.8c52.3-115,50.2-115,1207-115h1068.9l62.8,56.5c85.8,77.4,100.4,179.9,41.8,274c-58.6,94.1-113,108.8-389.1,108.8h-238.5v1230v1227.9l265.7,6.3c146.4,4.2,282.4,16.7,303.3,27.2c46,25.1,100.4,127.6,100.4,190.4c0,85.8-75.3,179.9-161.1,202.9C9397.2,311.5,7455.9,305.3,7372.2,269.7z M8572.9-1378.7l4.2-1230h-219.6h-219.7v1219.6c0,671.5,4.2,1225.8,8.4,1230c4.2,4.2,102.5,8.4,215.5,8.4h205L8572.9-1378.7z"/><path d="M194.9-3320c-119.2-71.1-127.6-253.1-16.7-349.4l54.4-48.1h4769.5h4771.6l60.7,60.7c48.1,48.1,60.7,79.5,60.7,148.5c0,108.8-27.2,159-104.6,198.7c-54.4,27.2-612.9,31.4-4794.6,31.4C333-3278.1,261.9-3278.1,194.9-3320z"/><path d="M178.2-4223.7C67.3-4322,75.7-4504,194.9-4575.1C261.9-4617,333-4617,5000-4617c4667,0,4738.1,0,4805.1,41.8c119.2,71.1,127.6,253.1,16.7,351.4l-54.4,46H5000H232.6L178.2-4223.7z"/></g></g>
</svg>