<?xml version="1.0" encoding="utf-8"?>
<!-- Svg Vector Icons : http://www.onlinewebfonts.com/icon -->
<!DOCTYPE svg PUBLIC "-//W3C//DTD SVG 1.1//EN" "http://www.w3.org/Graphics/SVG/1.1/DTD/svg11.dtd">
<svg version="1.1" xmlns="http://www.w3.org/2000/svg" xmlns:xlink="http://www.w3.org/1999/xlink" x="0px" y="0px" viewBox="0 0 1000 1000" enable-background="new 0 0 1000 1000" xml:space="preserve">
<metadata> Svg Vector Icons : http://www.onlinewebfonts.com/icon </metadata>
<g><g transform="translate(0.000000,512.000000) scale(0.100000,-0.100000)"><path d="M4851.4,4977.6c-63.2-28.7-90-55.5-118.7-118.7c-34.5-76.6-38.3-130.2-38.3-761.9c0-631.7,3.8-685.3,38.3-761.9c61.3-135.9,132.1-157,541.8-157h338.8V3025v-153.1h-918.9h-918.9v187.6c-1.9,241.2-38.3,333.1-157,386.7c-76.6,34.5-132.1,38.3-915,38.3s-838.5-3.8-915-38.3c-118.7-53.6-155.1-145.5-157-386.7v-187.6h-248.9c-371.4,0-511.1-67-616.4-296.7c-44-95.7-44-101.5-49.8-1012.7c-5.7-903.6-5.7-915.1-47.9-970.6c-34.5-49.8-72.7-273.7-285.2-1688.4c-134-897.8-245-1671.2-245-1721c0-49.7-9.6-95.7-19.1-101.4c-11.5-7.7-19.1-254.6-19.1-677.7c0-562.8,5.7-683.4,30.6-763.8c47.9-145.5,151.2-268,294.8-346.5l124.4-68.9h4450.8h4450.8l120.6,65.1c134,72.8,191.4,132.1,268,277.6l51.7,97.6l5.7,723.6c5.7,673.8,3.8,731.3-32.5,861.4c-21.1,74.7-172.3,779.1-336.9,1560.2c-296.7,1407-298.6,1424.3-269.9,1498.9c26.8,65.1,30.6,208.7,30.6,1064.4c0,677.7-7.7,1008.8-21,1058.6c-32.5,109.1-147.4,245-266.1,317.8c-185.7,112.9-262.3,122.5-941.9,122.5H7451V3025v153.1h340.8c407.7,0,478.6,21.1,539.8,157c34.5,76.6,38.3,130.2,38.3,761.9c0,631.7-3.8,685.3-38.3,761.9c-28.7,63.2-55.5,90-118.7,118.7c-78.5,36.4-137.8,38.3-1680.8,38.3S4929.9,5014,4851.4,4977.6z M7757.3,4097v-306.3H6532.1H5307V4097v306.3h1225.2h1225.2V4097z M6838.4,3025v-153.1h-306.3h-306.3V3025v153.1h306.3h306.3V3025z M3162.9,2259.3v-612.6h-459.4H2244v612.6v612.6h459.4h459.4V2259.3z M1631.5,1953c0-279.5-3.8-306.3-32.5-306.3c-19.1,0-70.8-17.2-116.8-38.3c-63.2-28.7-90-55.5-118.7-118.7l-38.3-82.3v426.9v425h153.1h153.1V1953z M4694.4,1493.5V727.8H3009.8H1325.2v273.7v271.8l38.3-82.3c28.7-63.2,55.5-90,118.7-118.7c78.5-36.4,134-38.3,1221.3-38.3c1087.3,0,1142.9,1.9,1221.3,38.3c206.8,93.8,206.8,442.2,0,536c-45.9,21.1-97.6,38.3-114.9,38.3c-30.6,0-34.5,26.8-34.5,306.3v306.3H4235h459.4V1493.5z M8645.6,2247.8c26.8-9.6,30.6-95.7,30.6-765.7V727.8H6991.6H5307v765.7v765.7h1654C7870.3,2259.3,8628.3,2253.5,8645.6,2247.8z M8900.2-1081.2c139.7-652.8,252.7-1202.2,254.6-1219.4c0-32.5-210.6-34.5-4173.3-34.5c-2295.3,0-4173.2,5.7-4173.2,11.5c0,24.9,384.8,2392.9,392.4,2415.9c7.7,19.2,761.9,23,3727.2,19.2l3719.5-5.7L8900.2-1081.2z M9265.8-2970.7c17.2-17.2,23-174.2,23-591.5v-568.6l-597.3-11.5c-329.3-5.7-2258.9-15.3-4288.1-21.1l-3690.8-11.5v614.5v612.6h4265.1C8270.4-2947.7,9248.6-2953.5,9265.8-2970.7z"/><path d="M2087.1-231.3c-199.1-103.4-193.3-442.2,7.7-534.1c118.7-53.6,486.2-53.6,604.9,0c206.8,93.8,206.8,442.2,0,536C2579.1-173.8,2190.4-175.8,2087.1-231.3z"/><path d="M3319.9-229.4c-63.2-28.7-90-55.5-118.7-118.7c-76.6-168.5-23-352.2,118.7-417.3c118.7-53.6,486.2-53.6,604.9,0c206.8,93.8,206.8,442.2,0,536C3806.1-175.8,3438.6-175.8,3319.9-229.4z"/><path d="M4851.4-229.4c-63.2-28.7-90-55.5-118.7-118.7c-76.6-168.5-23-352.2,118.7-417.3c67-30.6,124.4-38.3,302.5-38.3c277.6,0,365.6,32.5,421.2,157c76.6,168.5,23,352.2-118.7,417.3C5337.6-175.8,4970.1-175.8,4851.4-229.4z"/><path d="M6076.5-229.4c-63.2-28.7-90-55.5-118.7-118.7c-76.6-168.5-23-352.2,118.7-417.3c67-30.6,124.4-38.3,302.5-38.3c277.6,0,365.6,32.5,421.2,157c76.6,168.5,23,352.2-118.7,417.3C6562.8-175.8,6195.2-175.8,6076.5-229.4z"/><path d="M7301.7-229.4c-208.7-93.8-206.7-442.2,1.9-537.9c65.1-28.7,124.4-36.4,300.5-36.4c277.6,0,365.6,32.5,421.2,157c76.6,168.5,23,352.2-118.7,417.3C7787.9-175.8,7420.4-175.8,7301.7-229.4z"/><path d="M2094.7-1148.2c-206.8-93.8-206.8-442.2,0-536c118.7-53.6,486.2-53.6,604.9,0c206.8,93.8,206.8,442.2,0,536C2581-1094.6,2213.4-1094.6,2094.7-1148.2z"/><path d="M3319.9-1148.2c-208.7-93.8-206.8-442.2,1.9-537.9c116.8-51.7,486.3-51.7,603,1.9c206.8,93.8,206.8,442.2,0,536C3806.1-1094.6,3438.6-1094.6,3319.9-1148.2z"/><path d="M4851.4-1148.2c-208.7-93.8-206.8-442.2,1.9-537.9c65.1-28.7,124.4-36.4,300.6-36.4c277.6,0,365.6,32.5,421.2,157c76.6,168.5,23,352.2-118.7,417.3C5337.6-1094.6,4970.1-1094.6,4851.4-1148.2z"/><path d="M6076.5-1148.2c-63.2-28.7-90-55.5-118.7-118.7c-76.6-168.5-23-352.2,118.7-417.3c118.7-53.6,486.2-53.6,604.9,0c202.9,91.9,206.7,432.6,5.7,534.1C6578.1-1092.7,6199.1-1092.7,6076.5-1148.2z"/><path d="M7294.1-1150.2c-199.1-103.4-193.3-442.2,7.7-534.1c118.7-53.6,486.2-53.6,604.9,0c206.7,93.8,206.7,442.2,0,536C7786-1092.7,7397.4-1094.6,7294.1-1150.2z"/><path d="M3618.5-3294.2c-199.1-103.4-193.3-442.2,7.7-534.1c78.5-36.4,135.9-38.3,1374.5-38.3c1238.6,0,1296,1.9,1374.5,38.3c206.7,93.8,206.7,442.2,0,536c-78.5,36.4-135.9,38.3-1384.1,36.4C3733.4-3255.9,3687.5-3257.9,3618.5-3294.2z"/></g></g>
</svg>