<?xml version="1.0" encoding="iso-8859-1"?>
<!-- Generator: Adobe Illustrator 19.0.0, SVG Export Plug-In . SVG Version: 6.00 Build 0)  -->
<svg version="1.1" id="Capa_1" xmlns="http://www.w3.org/2000/svg" xmlns:xlink="http://www.w3.org/1999/xlink" x="0px" y="0px"
	 viewBox="0 0 490.05 490.05" style="enable-background:new 0 0 490.05 490.05;" xml:space="preserve">
<g>
	<path d="M189.825,166.95c30.8,17.8,80.5,17.8,111.1,0s30.4-46.6-0.4-64.3c-30.8-17.8-80.5-17.8-111.1,0
		C158.825,120.35,159.025,149.15,189.825,166.95z M203.725,136.25c2.3-0.8,4.7-1.5,7-2.2c1.7-0.5,2.7-0.7,3.4-0.3
		c0.4,0.2,0.7,0.7,1.1,1.3c1.6,2.9,4.1,5.5,7.3,7.9c0.5,0.4,1.1,0.8,1.7,1.1c1.7,1,3.8,1.8,6.1,2.3c5.9,1.3,11.2-1.1,10.6-4.7
		c-0.2-1.2-0.8-2.4-1.6-3.6c-2-3-4.6-5.8-6-9c-2.2-5.1-1.2-9.7,5.9-13.3c8-4.1,17-4.3,26.4-1.8c3.9,1,3.9,1.1,6.9-0.7
		c1-0.6,2-1.2,3-1.7c2.3-1.3,3-1.3,5.4,0c0.2,0.1,0.5,0.3,0.7,0.4c0.5,0.3,0.9,0.5,1.4,0.8c4.8,2.8,4.8,2.8,0.1,5.6
		c-3.3,1.9-3.4,2-0.5,4.2c2.2,1.7,3.9,3.6,5.2,5.6c0.8,1.1,0.3,1.9-1.4,2.5c-2.7,0.8-5.3,1.7-8,2.5c-1.6,0.5-2.6,0.6-3.3,0.2
		c-0.4-0.2-0.7-0.6-1.1-1.2c-1.8-2.9-4.5-5.3-8.2-7.5c-0.4-0.2-0.9-0.5-1.3-0.7c-1.1-0.6-2.4-1.1-3.8-1.4c-5.1-1.2-9.6,0.8-9,3.9
		c0.3,1.6,1.2,3.1,2.2,4.6c1.8,2.6,3.8,5.1,5.1,7.8c4.3,8.6-5,17-19.9,17.8c-5.4,0.3-10.5-0.4-15.2-1.9c-2.1-0.7-3.6-0.6-5.2,0.4
		c-1.6,1-3.2,1.9-4.9,2.8c-1.5,0.8-3,0.9-4.5,0c-1.1-0.6-2.1-1.2-3.2-1.8c-0.7-0.4-1.5-0.9-2.2-1.3c-1.5-0.9-1.4-1.8,0.1-2.7
		c1.2-0.7,2.4-1.4,3.5-2.1c2.6-1.6,2.6-1.7,0.5-3.4c-2.8-2.2-5.2-4.4-6.8-7C200.325,137.75,200.725,137.35,203.725,136.25z
		 M311.425,180.25l12.3-7.2c1.9-1.1,5-1.1,6.9,0l21.6,12.5c1.9,1.1,1.9,2.9,0,4l-12.3,7.2c-1.9,1.1-5,1.1-6.9,0l-21.6-12.5
		C309.525,183.05,309.525,181.25,311.425,180.25z M138.025,80.05l12.3-7.2c1.9-1.1,5-1.1,6.9,0l21.6,12.5c1.9,1.1,1.9,2.9,0,4
		l-12.3,7.2c-1.9,1.1-5,1.1-6.9,0l-21.6-12.5C136.125,82.95,136.125,81.15,138.025,80.05z M477.725,334.05l0.2-108.7l0.1-0.1
		l-0.1,0.1l0.1-58c0-0.2,0-0.3,0-0.5v-0.1l0,0c-0.2-1.3-1.1-2.6-2.8-3.7l-279.6-161.4c-3.8-2.2-10.1-2.2-13.9,0l-166.7,96.8
		c-2.2,1.3-3.1,3-2.7,4.7l0,0v55l-0.3,0.2l0.3,0.2v53.9l-0.3,0.2l0.3,0.2v54l-0.3,0.2l0.3,0.2v54.1l269.6,156.1l16.1,9.3l5.6,3.3
		l174-101.1l0.1-54.6 M303.525,464.85l-270.6-156.5v-29.2l248.7,143.7l16.1,9.3l5.7,3.3l153.6-89.4v29.7L303.525,464.85z
		 M457.025,212.15l-153.8,89.3l-270.3-156v-28.6l261.7,151.1c3.9,2.2,10.1,2.2,13.9,0l148.5-86.3V212.15z M86.225,87.55
		c-1.6-0.9-3.2-1.7-5-2.4l77.7-45.1c1.2,1,2.5,2,4.1,2.9c14.2,8.2,37.2,8.2,51.3,0c1.6-0.9,3-1.9,4.2-3l189,109
		c-2.5,0.9-4.9,1.9-7,3.2c-14.1,8.2-14,21.5,0.2,29.7c2.2,1.3,4.6,2.3,7.2,3.2l-78.4,45.6c-1.5-1.5-3.4-2.9-5.6-4.1
		c-14.2-8.2-37.2-8.2-51.3,0c-1.1,0.6-2,1.3-2.9,2l-188.5-108.8c1.8-0.7,3.5-1.5,5.2-2.5C100.525,109.05,100.425,95.75,86.225,87.55
		z M281.625,314.05l16.1,9.3l5.7,3.3l153.6-89.2v27.9l-153.5,90.9l-270.6-156.5v-29.3L281.625,314.05z M281.925,368.75l16.1,9.3
		l5.6,3.3l153.4-89.2v28.8l-153.8,89.3l-270.3-156.3v-29.2L281.925,368.75z"/>
</g>
<g>
</g>
<g>
</g>
<g>
</g>
<g>
</g>
<g>
</g>
<g>
</g>
<g>
</g>
<g>
</g>
<g>
</g>
<g>
</g>
<g>
</g>
<g>
</g>
<g>
</g>
<g>
</g>
<g>
</g>
</svg>
