<?xml version="1.0" encoding="utf-8"?>
<!-- Generator: Adobe Illustrator 23.0.1, SVG Export Plug-In . SVG Version: 6.00 Build 0)  -->
<svg version="1.1" id="Layer_1" xmlns="http://www.w3.org/2000/svg" xmlns:xlink="http://www.w3.org/1999/xlink" x="0px" y="0px"
	 viewBox="0 0 512 512" style="enable-background:new 0 0 512 512;" xml:space="preserve">
<style type="text/css">
	.st0{fill-rule:evenodd;clip-rule:evenodd;fill:#1B1B1B;}
</style>
<path class="st0" d="M456,282.5c0,18.8,0.1,53.9-23.2,77.3c-14.1,14.1-34.3,21.2-60.1,21.2h-18.2c-0.3,0-0.5,0-0.8,0
	c-46.8-1.4-73.9-46.7-79.8-79.1c-0.1-0.2-0.3-0.3-0.4-0.5c0-0.1-6.4-12.1-17.5-12.1c-11.2,0-17.5,12-17.5,12.1
	c-0.1,0.2-0.3,0.3-0.4,0.5c-5.9,32.4-33,77.8-79.8,79.2c-0.3,0-0.5,0-0.8,0h-18.2c-25.8,0-46-7.1-60.1-21.2
	C55.9,336.5,56,301.4,56,282.5v-1.6c0-4.7,0.4-8.8,1.3-12.5c-1.4-2.4-1.7-5.5-0.3-8.1l58.3-108.4c0.4-0.8,10.5-18.7,30.2-20.7
	c16.1-1.7,33,7.6,50.2,27.6c3,3.5,2.6,8.8-0.9,11.7c-3.5,3-8.7,2.6-11.7-0.9c-13.2-15.4-25.7-22.9-35.8-21.9
	c-10.9,1.1-17.2,12-17.2,12.1l-45,83.7c13.2-3.4,31-4.3,54.4-4.3c37.1,0,86.8,13.7,97.7,39.4c4.9-3.4,11.2-6.1,18.9-6.1
	s14,2.7,18.9,6.1c10.9-25.8,60.6-39.4,97.7-39.4c23.4,0,41.2,1,54.4,4.3L382,159.8c0,0-6.3-11-17.3-12c-10.1-0.9-22.5,6.6-35.7,21.9
	c-3,3.5-8.2,3.9-11.7,0.9c-3.5-3-3.9-8.3-0.9-11.7c17.2-20,34.1-29.2,50.2-27.6c19.7,2.1,29.7,19.9,30.1,20.6L455,260.3
	c1.4,2.7,1.1,5.7-0.3,8.1c0.9,3.7,1.3,7.8,1.3,12.5V282.5z M139.3,255.9c-66.7,0-66.7,8.9-66.7,25v1.6c0,16.4-0.1,47,18.4,65.5
	c10.8,10.8,27.1,16.3,48.3,16.3H156c46.2,0,66.7-54.4,66.7-75.1C222.7,273.1,179.8,255.9,139.3,255.9z M439.3,280.9
	c0-16.1,0-25-66.7-25c-40.5,0-83.3,17.2-83.3,33.4c0,20.7,20.5,75.1,66.7,75.1h16.7c21.2,0,37.5-5.5,48.3-16.3
	c18.4-18.4,18.4-49,18.4-65.5V280.9z"/>
</svg>
