<?xml version="1.0" encoding="utf-8"?>
<!-- Svg Vector Icons : http://www.onlinewebfonts.com/icon -->
<!DOCTYPE svg PUBLIC "-//W3C//DTD SVG 1.1//EN" "http://www.w3.org/Graphics/SVG/1.1/DTD/svg11.dtd">
<svg version="1.1" xmlns="http://www.w3.org/2000/svg" xmlns:xlink="http://www.w3.org/1999/xlink" x="0px" y="0px" viewBox="0 0 1000 1000" enable-background="new 0 0 1000 1000" xml:space="preserve">
<metadata> Svg Vector Icons : http://www.onlinewebfonts.com/icon </metadata>
<g><path d="M873.7,132.4H126.3C62.2,132.4,10,181.9,10,242.7v514.5c0,60.8,52.2,110.3,116.3,110.3h747.4c64.1,0,116.3-49.5,116.3-110.3V242.7C990,181.9,937.8,132.4,873.7,132.4z M873.7,770.2H126.3c-9.4,0-17.7-6.1-17.7-12.9V310.8l338,281.9c6.9,5.8,15.7,9,24.8,9h57.1c9.1,0,17.9-3.2,24.8-9l338-281.9v446.5C891.4,764.2,883.1,770.2,873.7,770.2z M500,504.9L171.2,229.8h657.5L500,504.9z"/></g>
</svg>