<?xml version="1.0" encoding="utf-8"?>
<!-- Svg Vector Icons : http://www.onlinewebfonts.com/icon -->
<!DOCTYPE svg PUBLIC "-//W3C//DTD SVG 1.1//EN" "http://www.w3.org/Graphics/SVG/1.1/DTD/svg11.dtd">
<svg version="1.1" xmlns="http://www.w3.org/2000/svg" xmlns:xlink="http://www.w3.org/1999/xlink" x="0px" y="0px" viewBox="0 0 1000 1000" enable-background="new 0 0 1000 1000" xml:space="preserve">
<metadata> Svg Vector Icons : http://www.onlinewebfonts.com/icon </metadata>
<g><g transform="translate(0.000000,511.000000) scale(0.100000,-0.100000)"><path d="M4083.3,4098.7L3177.5,3193h626.4h628.6l4.4-1117.5l6.5-1119.7l552.2-6.5l550-4.4v1124.1V3193H6183h639.5l-905.8,905.8c-497.6,497.6-910.2,905.8-916.7,905.8S4580.9,4596.4,4083.3,4098.7z"/><path d="M1005.8,1021.2L100,115.5l912.3-912.3l910.2-910.2v639.5v637.3h1119.7h1117.5l-2.2,443.1c-2.2,242.3-4.4,486.7-6.5,545.7l-2.2,102.6H3035.6H1922.5l-4.4,633l-6.5,633L1005.8,1021.2z"/><path d="M8073.1,1305l-6.5-633l-1117.5-6.5l-1119.7-4.4V115.5v-545.7l1119.7-4.4l1117.5-6.5l10.9-628.6l10.9-626.4l905.8,905.8L9900,115.5l-910.2,910.2l-912.3,912.3L8073.1,1305z"/><path d="M4432.5-1848.9v-1113.1H3817h-617.7l912.3-910.2l910.2-912.3l910.2,912.3l912.3,910.2h-650.4h-648.2v1113.1v1113.1h-556.6h-556.6V-1848.9z"/></g></g>
</svg>