<?xml version="1.0" encoding="utf-8"?>
<!-- Generator: Adobe Illustrator 24.1.1, SVG Export Plug-In . SVG Version: 6.00 Build 0)  -->
<svg version="1.1" id="Layer_1" xmlns="http://www.w3.org/2000/svg" xmlns:xlink="http://www.w3.org/1999/xlink" x="0px" y="0px"
	 viewBox="0 0 512 512" style="enable-background:new 0 0 512 512;" xml:space="preserve">
<style type="text/css">
	.st0{fill-rule:evenodd;clip-rule:evenodd;}
</style>
<g>
	<path class="st0" d="M407.5,307.6c5.7-16.6,8.5-34.1,8.5-51.6v-32c0-8.8-7.2-16-16-16s-16,7.2-16,16v32c0,8.8-0.9,17.3-2.6,25.6
		L407.5,307.6z M326.8,362.7c-58.9,39.1-138.3,23-177.4-35.8c-13.9-21-21.4-45.6-21.4-70.8v-32c0-8.8-7.2-16-16-16s-16,7.2-16,16v32
		c0,82.2,62.2,151,144,159.2V480h-96c-8.8,0-16,7.2-16,16c0,8.9,7.2,16,16,16h224c8.8,0,16-7.1,16-16c0-8.8-7.2-16-16-16h-96v-64.8
		c28.1-2.8,54.9-13,77.7-29.5L326.8,362.7z M352,252.2V96.1c0-53-42.9-96-95.9-96.1c-41.2,0-77.8,26.2-91,65.2l27,27
		C194,57,224.2,30,259.5,31.9c34,1.9,60.6,30.1,60.5,64.2v124.1L352,252.2L352,252.2z M279.6,315.5l23.9,23.9
		c-46,26.3-104.7,10.2-130.9-35.8c-8.3-14.5-12.6-30.9-12.6-47.6v-60.1l32,32V256c0,35.3,28.6,64,64,64
		C264.1,320.1,272.1,318.5,279.6,315.5z M436.6,427.3l-384-384l22.7-22.6l384,384L436.6,427.3L436.6,427.3z"/>
</g>
</svg>
