<?xml version="1.0" encoding="utf-8"?>
<!-- Svg Vector Icons : http://www.onlinewebfonts.com/icon -->
<!DOCTYPE svg PUBLIC "-//W3C//DTD SVG 1.1//EN" "http://www.w3.org/Graphics/SVG/1.1/DTD/svg11.dtd">
<svg version="1.1" xmlns="http://www.w3.org/2000/svg" xmlns:xlink="http://www.w3.org/1999/xlink" x="0px" y="0px" viewBox="0 0 1000 1000" enable-background="new 0 0 1000 1000" xml:space="preserve">
<metadata> Svg Vector Icons : http://www.onlinewebfonts.com/icon </metadata>
<g><g><g><path d="M717.6,69.1c-32.7-16.2-72.3-2.9-88.6,29.8c-16.2,32.7-2.9,72.3,29.8,88.6c122.7,60.9,199,183.8,199,320.8c0,197.3-160.5,357.9-357.9,357.9c-197.3,0-357.9-160.5-357.9-357.9c0-136.9,76.3-259.9,199-320.8c32.7-16.2,46-55.9,29.8-88.6c-16.2-32.7-55.9-46-88.6-29.8C114.4,152.5,10,320.8,10,508.3c0,270.2,219.8,490,490,490s490-219.8,490-490C990,320.8,885.6,152.5,717.6,69.1z"/><path d="M500,623.9c36.5,0,66.1-29.6,66.1-66.1v-490c0-36.5-29.6-66.1-66.1-66.1c-36.5,0-66.1,29.6-66.1,66.1v490C433.9,594.3,463.5,623.9,500,623.9z"/></g></g><g></g><g></g><g></g><g></g><g></g><g></g><g></g><g></g><g></g><g></g><g></g><g></g><g></g><g></g><g></g></g>
</svg>