<?xml version="1.0" encoding="iso-8859-1"?>
<!-- Generator: Adobe Illustrator 19.0.0, SVG Export Plug-In . SVG Version: 6.00 Build 0)  -->
<svg version="1.1" id="Capa_1" xmlns="http://www.w3.org/2000/svg" xmlns:xlink="http://www.w3.org/1999/xlink" x="0px" y="0px"
	 viewBox="0 0 512 512" style="enable-background:new 0 0 512 512;" xml:space="preserve">
<g>
	<g>
		<g>
			<path d="M503.467,422.402H486.4v-25.6c0-4.719-3.814-8.533-8.533-8.533H435.2v-25.6c0-4.719-3.814-8.533-8.533-8.533h-76.8
				c-4.719,0-8.533,3.814-8.533,8.533v25.6h-42.667c-4.719,0-8.533,3.814-8.533,8.533v25.6h-25.6v-76.8
				c0-4.719-3.814-8.533-8.533-8.533v-8.538c0-11.123-7.135-20.608-17.067-24.132v-18.535c0-4.71-3.814-8.533-8.533-8.533
				s-8.533,3.823-8.533,8.533V304.4c-9.931,3.523-17.067,13.009-17.067,24.132v8.538c-4.719,0-8.533,3.814-8.533,8.533v76.8H179.2
				v-76.8c0-4.719-3.814-8.533-8.533-8.533v-8.538c0-11.123-7.135-20.608-17.067-24.132v-18.535c0-4.71-3.814-8.533-8.533-8.533
				s-8.533,3.823-8.533,8.533V304.4c-9.931,3.523-17.067,13.009-17.067,24.132v8.538c-4.719,0-8.533,3.814-8.533,8.533v76.8H93.867
				v-76.8c0-4.719-3.814-8.533-8.533-8.533v-8.538c0-11.123-7.135-20.608-17.067-24.132v-18.535c0-4.71-3.814-8.533-8.533-8.533
				s-8.533,3.823-8.533,8.533V304.4c-9.931,3.523-17.067,13.009-17.067,24.132v8.538c-4.719,0-8.533,3.814-8.533,8.533v76.8H8.533
				c-4.719,0-8.533,3.814-8.533,8.533v34.133c0,4.71,3.814,8.533,8.533,8.533H25.6v17.067c0,4.71,3.814,8.533,8.533,8.533h51.2
				c4.719,0,8.533-3.823,8.533-8.533v-17.067h324.267v17.067c0,4.71,3.814,8.533,8.533,8.533h51.2c4.719,0,8.533-3.823,8.533-8.533
				v-17.067h17.067c4.719,0,8.533-3.823,8.533-8.533v-34.133C512,426.217,508.186,422.402,503.467,422.402z M221.867,328.531
				c0-4.702,3.823-8.533,8.533-8.533s8.533,3.831,8.533,8.533v8.533h-17.067V328.531z M136.533,328.531
				c0-4.702,3.823-8.533,8.533-8.533c4.71,0,8.533,3.831,8.533,8.533v8.533h-17.067V328.531z M51.2,328.531
				c0-4.702,3.823-8.533,8.533-8.533s8.533,3.831,8.533,8.533v8.533H51.2V328.531z M469.333,422.402h-51.2v-17.067h8.533h42.667
				V422.402z M375.467,422.402v-17.067h25.6v17.067H375.467z M358.4,371.202h59.733v17.067H409.6h-42.667H358.4V371.202z
				 M307.2,405.335h42.667h8.533v17.067h-51.2V405.335z M213.333,354.135h34.133v68.267h-34.133V354.135z M128,354.135h34.133
				v68.267H128V354.135z M42.667,354.135H76.8v68.267H42.667V354.135z M76.8,482.135H42.667v-8.533H76.8V482.135z M469.333,482.135
				H435.2v-8.533h34.133V482.135z M494.933,456.535h-17.067h-51.2H85.333h-51.2H17.067v-17.067h17.067h51.2h34.133h51.2H204.8H256
				h42.667h68.267H409.6h68.267h17.067V456.535z"/>
			<path d="M503.467,132.269h-8.533V72.531c0-11.123-7.135-20.608-17.067-24.132V21.331c0-4.71-3.814-8.533-8.533-8.533
				s-8.533,3.823-8.533,8.533V48.4c-9.931,3.523-17.067,13.009-17.067,24.132v59.738h-17.067V72.531
				c0-11.123-7.135-20.608-17.067-24.132V21.331c0-4.71-3.814-8.533-8.533-8.533c-4.719,0-8.533,3.823-8.533,8.533V48.4
				c-9.931,3.523-17.067,13.009-17.067,24.132v59.738H358.4V72.531c0-11.123-7.135-20.608-17.067-24.132V21.331
				c0-4.71-3.814-8.533-8.533-8.533c-4.719,0-8.533,3.823-8.533,8.533V48.4c-9.931,3.523-17.067,13.009-17.067,24.132v59.738h-25.6
				v-25.6c0-4.719-3.814-8.533-8.533-8.533h-8.533v-25.6c0-4.719-3.814-8.533-8.533-8.533h-34.133c-4.719,0-8.533,3.814-8.533,8.533
				v25.6H204.8c-4.719,0-8.533,3.814-8.533,8.533v25.6H179.2v-102.4c0-4.719-3.814-8.533-8.533-8.533h-34.133
				c-4.719,0-8.533,3.814-8.533,8.533v17.067h-17.067V29.869c0-4.719-3.814-8.533-8.533-8.533H68.267
				c-4.719,0-8.533,3.814-8.533,8.533v17.067h-25.6c-4.719,0-8.533,3.814-8.533,8.533v76.8H8.533c-4.719,0-8.533,3.814-8.533,8.533
				v34.133c0,4.71,3.814,8.533,8.533,8.533H25.6v17.067c0,4.71,3.814,8.533,8.533,8.533h51.2c4.719,0,8.533-3.823,8.533-8.533
				v-17.067h324.267v17.067c0,4.71,3.814,8.533,8.533,8.533h51.2c4.719,0,8.533-3.823,8.533-8.533v-17.067h17.067
				c4.719,0,8.533-3.823,8.533-8.533v-34.133C512,136.083,508.186,132.269,503.467,132.269z M460.8,72.531
				c0-4.702,3.823-8.533,8.533-8.533s8.533,3.831,8.533,8.533v59.733H460.8V72.531z M392.533,72.531
				c0-4.702,3.823-8.533,8.533-8.533s8.533,3.831,8.533,8.533v59.733h-17.067V72.531z M324.267,72.531
				c0-4.702,3.823-8.533,8.533-8.533c4.71,0,8.533,3.831,8.533,8.533v59.733h-17.067V72.531z M247.467,115.202H256h8.533v17.067
				h-17.067V115.202z M230.4,81.069h17.067v17.067h-8.533H230.4V81.069z M213.333,115.202h8.533h8.533v17.067h-17.067V115.202z
				 M145.067,38.402h17.067v93.867h-17.067v-76.8V38.402z M128,64.002v68.267h-17.067V64.002H128z M76.8,38.402h17.067v17.067v76.8
				H76.8v-76.8V38.402z M42.667,64.002h17.067v68.267H42.667V64.002z M76.8,192.002H42.667v-8.533H76.8V192.002z M469.333,192.002
				H435.2v-8.533h34.133V192.002z M494.933,166.402h-17.067h-51.2H85.333h-51.2H17.067v-17.067h17.067h34.133H102.4h34.133h34.133
				H204.8h34.133h34.133h221.867V166.402z"/>
		</g>
	</g>
</g>
<g>
</g>
<g>
</g>
<g>
</g>
<g>
</g>
<g>
</g>
<g>
</g>
<g>
</g>
<g>
</g>
<g>
</g>
<g>
</g>
<g>
</g>
<g>
</g>
<g>
</g>
<g>
</g>
<g>
</g>
</svg>
