<?xml version="1.0" encoding="utf-8"?>
<!-- Svg Vector Icons : http://www.onlinewebfonts.com/icon -->
<!DOCTYPE svg PUBLIC "-//W3C//DTD SVG 1.1//EN" "http://www.w3.org/Graphics/SVG/1.1/DTD/svg11.dtd">
<svg version="1.1" xmlns="http://www.w3.org/2000/svg" xmlns:xlink="http://www.w3.org/1999/xlink" x="0px" y="0px" viewBox="0 0 1000 1000" enable-background="new 0 0 1000 1000" xml:space="preserve">
<metadata> Svg Vector Icons : http://www.onlinewebfonts.com/icon </metadata>
<g><g transform="translate(0.000000,512.000000) scale(0.100000,-0.100000)"><path d="M3849.1,5007.1c-476.8-69.2-905.6-296.1-1155.5-609.5c-111.5-140.4-244.2-413.4-298-609.5c-38.5-138.4-44.2-211.5-51.9-726.7c-7.7-555.7-9.6-576.8-51.9-665.2c-144.2-284.6-94.2-667.2,123-938.3c44.2-57.7,101.9-163.4,128.8-240.3c76.9-215.3,244.2-526.8,382.6-713.3l125-167.3V204.4c0-115.4-7.7-142.3-50-192.3c-173-205.7-1017.1-621-2234.1-1099.7c-453.7-178.8-528.7-225-615.2-390.3L100-1576v-596c0-576.8,1.9-597.9,42.3-674.8c55.8-105.8,213.4-244.2,309.5-273c55.8-17.3,622.9-23.1,2241.8-23.1h2164.9l61.5,55.8c53.8,48.1,63.4,69.2,63.4,146.1c0,76.9-9.6,98-63.4,146.1l-61.5,55.8H2685.9H513.4l3.8,557.6l5.8,557.6l519.1,209.6C2247.6-930,2995.5-541.6,3281.9-251.3C3447.3-84,3455-61,3455,244.7v263.4l-98.1,111.5c-203.8,230.7-334.5,463.3-451.8,801.7c-61.5,180.7-78.8,209.6-155.7,273c-101.9,82.7-157.7,194.2-159.6,309.5c0,96.1,23.1,163.4,92.3,263.4l51.9,75l11.5,626.8c9.6,551.8,15.4,644.1,51.9,772.9c153.8,563.3,559.5,838.3,1292,876.7c701.8,36.5,1230.5-182.6,1438.1-592.2c126.9-253.8,142.3-361.4,153.8-1053.6l7.7-622.9l69.2-103.8c130.7-196.1,98.1-405.7-82.7-555.6c-71.1-57.7-92.3-92.3-136.5-225c-109.6-332.6-240.3-572.9-446.1-819l-119.2-140.4v-273c0-309.6,21.2-374.9,146.1-494.1c144.2-136.5,448-305.7,547.9-305.7c86.5,0,190.4,107.7,190.4,198c0,94.2-59.6,157.7-219.2,236.5c-75,38.5-165.4,90.4-198,117.3c-61.5,46.2-63.4,48.1-63.4,200v155.7l121.1,161.5c144.2,190.3,273,428.7,369.1,678.7c42.3,109.6,105.7,225,161.5,299.9c130.7,169.2,184.6,334.6,182.6,557.6c0,148-9.6,192.3-55.8,298l-55.8,125l-13.4,576.8c-13.5,617.2-26.9,721-125,963.2c-144.2,361.5-405.7,647.9-747.9,819c-142.3,73.1-399.9,148-605.6,180.7C4410.5,5030.1,4033.7,5034,3849.1,5007.1z"/><path d="M7452.1-297.5C6487-385.9,5648.7-1147.3,5443-2124c-46.2-219.2-46.2-605.6,0-822.9c169.2-801.7,732.5-1445.8,1505.4-1720.7c305.7-109.6,744.1-148,1063.2-92.3c999.8,174.9,1797.7,1036.3,1880.3,2030.3c55.8,661.4-178.8,1288.2-659.5,1768.8C8749.9-478.2,8107.7-237.9,7452.1-297.5z M8155.8-758.9c634.5-173,1107.4-649.8,1280.5-1288.2c38.4-140.4,46.1-209.6,46.1-490.3c0-282.6-5.8-349.9-44.2-488.3C9263.2-3664,8796-4137,8155.8-4319.6c-136.5-38.5-194.2-44.2-509.5-42.3c-330.7,0-367.2,3.8-524.9,51.9c-615.2,190.4-1047.8,622.9-1238.2,1238.2c-48.1,159.6-51.9,192.3-51.9,534.5s3.8,374.9,51.9,534.5c103.8,336.5,261.5,590.2,509.5,822.9c238.4,221.1,524.9,371.1,845.9,442.2C7473.3-687.8,7934.7-697.4,8155.8-758.9z"/><path d="M7594.4-1249.2c-113.4-48.1-121.1-88.4-121.1-624.9v-480.7h-480.6c-542.2,0-576.8-7.7-626.8-128.8c-36.5-82.7-9.6-178.8,63.4-236.5c46.1-36.5,76.9-38.5,546-38.5h496.1l5.8-507.6c5.8-507.6,5.8-507.6,51.9-557.6c63.5-67.3,163.4-84.6,244.2-40.4c34.6,19.2,69.2,48.1,78.8,65.4c7.7,17.3,19.2,255.7,25,530.6l9.6,499.9l499.9,9.6c274.9,5.8,513.3,17.3,530.6,25c17.3,9.6,46.2,44.2,65.4,78.8c44.2,80.8,26.9,180.7-40.4,244.2c-50,46.1-50,46.1-557.6,51.9l-507.6,5.8v494.1c0,549.9-1.9,559.5-126.9,611.4C7673.2-1214.6,7671.3-1214.6,7594.4-1249.2z"/></g></g>
</svg>