<?xml version="1.0" encoding="utf-8"?>
<!-- Svg Vector Icons : http://www.onlinewebfonts.com/icon -->
<!DOCTYPE svg PUBLIC "-//W3C//DTD SVG 1.1//EN" "http://www.w3.org/Graphics/SVG/1.1/DTD/svg11.dtd">
<svg version="1.1" xmlns="http://www.w3.org/2000/svg" xmlns:xlink="http://www.w3.org/1999/xlink" x="0px" y="0px" viewBox="0 0 1000 1000" enable-background="new 0 0 1000 1000" xml:space="preserve">
<metadata> Svg Vector Icons : http://www.onlinewebfonts.com/icon </metadata>
<g><g transform="translate(0.000000,511.000000) scale(0.100000,-0.100000)"><path d="M4240.3,3782.5c-112.6-39.7-187.6-110.4-214.1-207.5c-13.2-48.6-22.1-642.2-22.1-1540.5V571.4h-849.7h-849.7v465.7v465.7l-66.2,66.2c-57.4,55.2-81.7,66.2-141.2,55.2c-53-8.8-361.9-220.7-1010.8-690.8c-512-375.2-944.6-695.2-960-715C111,200.6,100,149.9,100,107.9c0-41.9,11-92.7,26.5-112.6c15.4-17.7,448-339.9,964.4-715c840.9-611.3,946.8-682,1024-682c66.2,0,94.9,13.3,136.8,59.6c53,61.8,53,68.4,53,525.3v461.3h849.7h849.7v-1461c0-896,8.8-1494.1,22.1-1542.7c81.7-293.5,534.1-293.5,620.2,2.2c13.2,50.8,19.9,1218.2,15.4,3513.5c-6.6,3429.6-6.6,3436.2-53,3495.8C4509.5,3787,4381.5,3831.1,4240.3,3782.5z"/><path d="M5707.9,3793.6c-90.5-19.9-176.6-97.1-216.3-192c-46.4-105.9-46.4-6881.3,0-6987.2c101.5-240.6,434.8-264.8,580.4-44.1c37.5,55.2,39.7,169.9,46.3,1566.9l6.6,1507.3h781.3h783.5v-465.7v-465.7l66.2-66.2c57.4-55.2,81.6-66.2,141.3-55.2c50.7,8.8,357.5,218.5,975.4,666.5C9369.2-382,9801.8-59.8,9837.1-28.9c83.9,79.4,83.9,194.2,0,273.7c-35.3,30.9-467.9,353.1-964.4,712.8c-613.5,443.6-926.9,659.9-975.4,666.5c-59.6,11-83.9,0-141.3-55.2l-66.2-66.2v-465.7V571.4h-783.5H6125l-6.6,1509.6c-6.6,1496.3-6.6,1511.8-52.9,1573.6C5979.4,3769.3,5838.1,3822.3,5707.9,3793.6z"/></g></g>
</svg>