<?xml version="1.0" encoding="utf-8"?>
<!-- Svg Vector Icons : http://www.onlinewebfonts.com/icon -->
<!DOCTYPE svg PUBLIC "-//W3C//DTD SVG 1.1//EN" "http://www.w3.org/Graphics/SVG/1.1/DTD/svg11.dtd">
<svg version="1.1" xmlns="http://www.w3.org/2000/svg" xmlns:xlink="http://www.w3.org/1999/xlink" x="0px" y="0px" viewBox="0 0 1000 1000" enable-background="new 0 0 1000 1000" xml:space="preserve">
<metadata> Svg Vector Icons : http://www.onlinewebfonts.com/icon </metadata>
<g><g transform="translate(0.000000,511.000000) scale(0.100000,-0.100000)"><path d="M2942.5,4992.6c-606-15.1-565,19.4-545.6-457.2c8.6-185.4,30.2-496,47.5-690.1c45.3-487.3,62.5-1138.6,32.3-1300.3c-79.8-427-377.4-698.7-940.2-862.6c-105.7-30.2-209.2-71.2-232.9-92.7c-51.8-45.3-45.3-107.8,58.2-467.9c235-838.8,355.8-1822.2,329.9-2717.1c-23.7-813-120.8-1485.8-329.9-2335.4c-53.9-217.8-92.7-416.2-86.3-442.1c6.5-25.9,30.2-58.2,53.9-73.3c79.8-49.6,1339.1-224.3,2180.1-301.9c603.8-56.1,2341.9-56.1,2965.1,0c532.7,47.5,1158,125.1,1725.1,211.3c351.5,53.9,439.9,73.3,480.9,110c25.9,25.9,47.4,62.5,47.4,81.9c0,21.6-43.1,215.6-94.9,433.4c-349.3,1447-420.5,2523-248,3782.4c51.8,383.8,163.9,929.4,267.4,1311.1c41,150.9,75.5,297.6,75.5,325.6c0,64.7-49.6,107.8-194.1,163.9c-383.8,151-593,325.6-733.2,612.4c-174.7,351.5-224.3,838.8-202.7,1932.1c15.1,640.5,12.9,659.9-30.2,711.6l-43.1,53.9l-493.8,6.5c-606,8.6-595.2,12.9-618.9-243.7c-32.3-358-168.2-644.8-420.5-894.9c-556.4-549.9-1440.5-549.9-1986.1-2.1c-248,250.1-370.9,513.2-407.6,875.5c-17.3,168.2-25.9,198.4-77.6,241.5c-30.2,28-66.9,47.5-81.9,45.3C3423.3,5007.7,3201.2,4999.1,2942.5,4992.6z M3319.8,4500.9c133.7-653.4,608.1-1151.5,1257.2-1319.7c235-62.5,603.8-62.5,832.4-2.1c577.9,148.8,1032.9,565,1216.2,1112.7c30.2,90.6,62.5,213.5,69,271.7l12.9,105.7h293.3h293.3V3813c0-897.1,15.1-1076,112.1-1375.8c131.5-407.6,418.3-733.2,825.9-938l163.9-81.9l-90.5-364.4c-232.9-940.2-327.8-1772.6-304.1-2648.1c21.6-778.5,110-1427.5,310.5-2259.9c41-176.8,71.2-323.5,66.9-327.8c-2.1-4.3-176.8-32.3-383.8-62.5c-2165-319.2-3756.5-321.3-5917.2-10.8c-250.1,34.5-457.2,66.9-461.5,71.2c-4.3,4.3,21.6,129.4,58.2,273.8c414,1707.9,422.7,3290.7,25.9,4897.2l-99.2,405.4l140.2,45.3c593,196.2,901.4,496,1028.6,1000.6c51.7,211.3,47.4,804.3-10.8,1472.8c-25.9,289-47.4,577.9-47.4,642.6v116.4h286.8h284.7L3319.8,4500.9z"/></g></g>
</svg>