<?xml version="1.0" encoding="utf-8"?>
<!-- Svg Vector Icons : http://www.onlinewebfonts.com/icon -->
<!DOCTYPE svg PUBLIC "-//W3C//DTD SVG 1.1//EN" "http://www.w3.org/Graphics/SVG/1.1/DTD/svg11.dtd">
<svg version="1.1" xmlns="http://www.w3.org/2000/svg" xmlns:xlink="http://www.w3.org/1999/xlink" x="0px" y="0px" viewBox="0 0 1000 1000" enable-background="new 0 0 1000 1000" xml:space="preserve">
<metadata> Svg Vector Icons : http://www.onlinewebfonts.com/icon </metadata>
<g><path d="M366.2,856.4c-88.3,0-176.7,0-265,0c-51.5,0-91.1-39.6-91.1-91.1c0-176.9,0-353.8,0-530.6c0-51.4,39.7-91,91.2-91c177.1,0,354.1,0,531.2,0c51.5,0,91.1,39.6,91.1,91.1c0,176.9,0,353.8,0,530.6c0,51.4-39.7,91-91.2,91C543.6,856.4,454.9,856.4,366.2,856.4z M56.7,764.1c0,27,18.6,45.6,45.7,45.6c176.1,0,352.2,0,528.3,0c27.5,0,46.1-18.4,46.1-45.8c0-175.9,0-351.9,0-527.8c0-27.4-18.5-45.9-46-45.9c-176.1,0-352.2,0-528.3,0c-27.1,0-45.8,18.5-45.8,45.5C56.7,323.7,56.7,675.9,56.7,764.1z"/><path d="M990,214.2c0,190.8,0,380.9,0,571.8c-2-1.1-148.4-92.4-220.2-137.1c-3-1.9-4.2-3.8-4.2-7.4c0.1-94.3,0.1-188.7,0-283c0-3.4,1-5.3,3.8-7.1C841.5,306.5,988.3,215.1,990,214.2z M943.2,701.9c0-135,0-269,0-403.5c-1.3,0.7-86,53.4-127.6,79.3c-3,1.8-3.2,4-3.2,6.9c0,77,0.1,153.9-0.1,230.9c0,3.6,1.1,5.6,4.1,7.5C846,641.2,930,693.7,943.2,701.9z"/></g>
</svg>