<svg id="Capa_1" enable-background="new 0 0 512.634 512.634" height="512" viewBox="0 0 512.634 512.634" width="512" xmlns="http://www.w3.org/2000/svg"><g><path d="m497.317 50.637h-482l-15 99.363v347.634c0 8.284 6.716 15 15 15h241z" fill="#d7e8ff"/><path d="m497.317 20.636h-241v491.999h241c8.284 0 15-6.716 15-15v-347.635z" fill="#b3cdeb"/><path d="m414.13 180.219h-315.625l-15 137.059v60.005c0 8.284 6.716 15 15 15h315.625c8.284 0 15-6.716 15-15v-182.064c0-8.284-6.716-15-15-15z" fill="#00cb76"/><path d="m414.13 180.219h-157.813v212.063h157.813c8.284 0 15-6.716 15-15v-60.005z" fill="#00a870"/><path d="m414.13 120.215h-315.625l-15 137.251v59.812c0 8.284 6.716 15 15 15h315.625c8.284 0 15-6.716 15-15v-59.769z" fill="#00a870"/><path d="m256.317 120.215v212.063h157.813c8.284 0 15-6.716 15-15v-59.769l-15-137.294z" fill="#029366"/><path d="m497.317 0h-482c-8.284 0-15 6.716-15 15v135h512v-135c0-8.284-6.716-15-15-15z" fill="#4d6780"/><path d="m256.317 150h256v-135c0-8.284-6.716-15-15-15h-241z" fill="#37445e"/><path d="m437.317 60h-362c-8.284 0-15 6.716-15 15s6.716 15 15 15h362c8.284 0 15-6.716 15-15s-6.716-15-15-15z" fill="#d7e8ff"/><path d="m437.317 60h-181v30h181c8.284 0 15-6.716 15-15s-6.716-15-15-15z" fill="#b3cdeb"/><g><path d="m376.628 77.764h-240.633l-52.49 52.49v72.49l69.744 69.744 206.136.043 69.744-69.744v-72.49z" fill="#a4e786"/><path d="m376.628 77.764h-120.311v194.745l103.068.022 69.744-69.744v-72.49z" fill="#00cb76"/><path d="m362.316 77.764c8.682 29.272 35.139 50.974 66.813 52.533v-52.533z" fill="#00a870"/><path d="m359.385 272.531h54.744c8.284 0 15-6.716 15-15v-54.744c-37.622 1.852-67.892 32.121-69.744 69.744z" fill="#00a870"/><g fill="#00cb76"><path d="m83.505 202.744v54.744c0 8.284 6.716 15 15 15h54.744c-1.852-37.623-32.121-67.892-69.744-69.744z"/><path d="m83.505 77.764v52.49c31.658-1.559 58.104-23.24 66.799-52.49z"/><circle cx="256.317" cy="166.542" r="45"/></g><path d="m256.317 121.542v90c24.813 0 45-20.187 45-45s-20.186-45-45-45z" fill="#00a870"/></g></g></svg>