<?xml version="1.0" encoding="utf-8"?>
<!DOCTYPE svg PUBLIC "-//W3C//DTD SVG 1.1//EN" "http://www.w3.org/Graphics/SVG/1.1/DTD/svg11.dtd">
<svg version="1.1"
	xmlns="http://www.w3.org/2000/svg"
	xmlns:xlink="http://www.w3.org/1999/xlink" x="0px" y="0px" viewBox="0 0 1000 1000" enable-background="new 0 0 1000 1000" xml:space="preserve">
	<metadata> Svg Vector Icons : http://www.onlinewebfonts.com/icon </metadata>
	<g>
		<path fill="#fff" d="M371.4,714.4h-294C40.6,714.4,10,683.8,10,647s30.6-67.4,67.4-67.4h294c36.8,0,67.4,30.6,67.4,67.4S408.1,714.4,371.4,714.4z"/>
		<path fill="#fff" d="M224.4,861.4c-36.8,0-67.4-30.6-67.4-67.4V500c0-36.8,30.6-67.4,67.4-67.4s67.4,30.6,67.4,67.4v294C291.8,830.8,261.1,861.4,224.4,861.4z"/>
		<path fill="#fff" d="M291.8,297.9c0,145.5,117.9,263.4,263.4,263.4s263.4-117.9,263.4-263.4c0-145.5-117.9-263.4-263.4-263.4S291.8,152.4,291.8,297.9z"/>
		<path fill="#fff" d="M555.1,524.5c-42.9,0-91.9,6.1-128.6,18.4c30.6,12.3,61.3,42.9,61.3,104.1c0,116.4-116.4,116.4-116.4,116.4h-30.6V794c0,0,0,116.4-116.4,116.4c-49,0-73.5-18.4-91.9-42.9c-6.1,18.4-6.1,36.8-6.1,61.3c0,0,0,36.8,36.8,36.8c30.6,0,759.5,0,790.1,0c36.8,0,36.8-36.8,36.8-36.8C971.6,696,781.8,524.5,555.1,524.5z"/>
	</g>
</svg>